<?xml version="1.0" standalone="no"?>
<!DOCTYPE svg PUBLIC "-//W3C//DTD SVG 20010904//EN"
 "http://www.w3.org/TR/2001/REC-SVG-20010904/DTD/svg10.dtd">
<svg version="1.0" xmlns="http://www.w3.org/2000/svg"
 width="1024.000000pt" height="1024.000000pt" viewBox="0 0 1024.000000 1024.000000"
 preserveAspectRatio="xMidYMid meet" fill="#FFFFFF" stroke="none">
  <rect width="100%" height="100%" fill="white"/>

<g transform="translate(0.000000,1024.000000) scale(0.100000,-0.100000)"
fill="#000000" stroke="none">
<path d="M2581 8269 c-60 -15 -132 -87 -157 -160 -29 -84 -27 -456 5 -669 62
-421 148 -744 320 -1200 l69 -184 -48 -56 c-50 -57 -233 -238 -309 -304 -24
-21 -39 -42 -35 -46 25 -24 173 -62 246 -64 43 0 78 -3 78 -6 -1 -3 -21 -20
-45 -38 -139 -102 -263 -321 -346 -607 -40 -142 -84 -202 -231 -319 -27 -20
-48 -41 -48 -46 0 -16 101 -69 175 -92 39 -12 71 -23 72 -23 2 -1 -8 -34 -21
-73 -105 -306 -19 -753 211 -1099 31 -46 37 -51 55 -42 11 6 33 30 51 55 17
24 34 44 38 44 4 0 20 -37 35 -82 72 -221 195 -407 366 -556 313 -273 823
-488 1413 -597 77 -14 243 -48 369 -76 125 -27 230 -48 232 -46 4 4 -90 67
-296 197 -173 110 -292 203 -423 329 -64 63 -119 112 -122 109 -3 -2 -14 -40
-26 -84 -14 -55 -19 -95 -15 -132 l6 -52 -82 41 c-233 116 -436 276 -571 449
-27 34 -28 35 -43 15 -28 -35 -94 -179 -101 -217 -3 -21 -8 -38 -12 -38 -14 0
-136 154 -180 229 -124 205 -163 511 -101 791 11 52 23 108 27 123 l6 29 -64
-32 c-35 -18 -101 -57 -146 -86 -46 -29 -83 -50 -83 -46 0 4 9 43 19 87 103
423 511 833 1021 1025 l85 32 -35 74 -35 75 -90 -6 c-235 -16 -501 -73 -753
-159 -136 -47 -345 -142 -434 -196 -28 -17 -52 -29 -54 -27 -6 6 72 68 141
112 132 85 382 188 579 239 130 34 315 63 470 75 70 6 130 11 131 13 2 2 5 47
7 100 l3 96 -35 11 c-72 21 -289 61 -410 75 -109 13 -289 23 -455 27 -86 1 -9
17 149 30 231 18 468 -6 680 -69 66 -19 91 -23 94 -14 8 26 68 106 92 124 16
11 84 29 182 47 92 17 180 40 213 55 108 49 213 189 248 331 19 75 25 134 37
362 11 219 32 356 71 479 47 147 81 174 138 109 17 -19 32 -35 35 -35 2 0 14
30 26 66 26 76 140 306 155 311 13 4 100 -162 149 -283 l37 -90 40 39 40 40
24 -23 c34 -32 79 -155 103 -280 24 -121 29 -176 42 -430 15 -290 50 -391 174
-516 85 -85 124 -102 333 -143 167 -34 209 -55 243 -125 12 -25 26 -46 31 -46
5 0 56 13 115 30 130 36 290 59 449 64 128 4 303 -7 357 -23 l33 -9 -40 -1
c-384 -13 -578 -35 -817 -93 l-88 -21 0 -98 0 -98 53 -5 c28 -2 108 -9 177
-15 166 -14 353 -52 520 -107 216 -71 485 -209 555 -285 l30 -32 -35 20 c-342
197 -750 326 -1145 363 -168 15 -158 17 -178 -39 -9 -27 -25 -59 -36 -72 l-18
-23 94 -38 c553 -222 945 -635 1029 -1082 l6 -37 -83 54 c-71 46 -200 117
-212 117 -2 0 7 -46 20 -102 36 -160 46 -261 40 -398 -10 -238 -84 -420 -250
-613 l-50 -59 -28 77 c-16 43 -45 105 -65 140 l-37 63 -50 -62 c-137 -165
-321 -312 -506 -405 -137 -70 -126 -72 -126 23 0 75 -27 197 -44 196 -3 -1
-24 -24 -46 -52 -44 -56 -190 -190 -285 -261 -33 -25 -135 -91 -227 -148 -160
-97 -296 -189 -290 -196 2 -1 124 24 273 57 148 32 350 75 449 94 545 106
1059 339 1341 608 52 50 117 121 144 157 65 86 141 234 181 351 18 52 34 97
36 99 2 3 26 -20 53 -50 l50 -54 35 40 c42 47 141 244 183 365 64 185 77 259
76 450 0 159 -3 182 -26 255 -14 44 -28 87 -32 95 -5 12 10 20 67 37 74 23
177 77 177 92 0 5 -37 40 -82 78 -121 102 -164 166 -203 304 -80 277 -179 453
-324 576 l-60 50 77 6 c80 6 193 36 227 61 18 13 7 25 -180 208 l-199 194 51
130 c165 418 259 743 322 1119 47 274 65 616 40 750 -33 178 -138 250 -331
226 -169 -20 -336 -94 -583 -258 -238 -158 -540 -392 -767 -595 -41 -38 -85
-68 -96 -68 -11 0 -67 11 -124 25 -295 71 -577 100 -900 92 -284 -6 -445 -28
-809 -108 l-55 -12 -125 109 c-464 408 -938 725 -1185 793 -88 24 -225 33
-283 20z m1683 -1890 c136 -37 254 -145 303 -279 97 -266 -73 -553 -358 -602
-167 -29 -355 55 -448 200 -56 87 -73 154 -69 267 3 87 8 109 35 168 94 200
321 304 537 246z m1992 -9 c111 -38 205 -124 261 -236 47 -97 56 -207 24 -312
-84 -277 -381 -407 -641 -280 -172 84 -274 283 -242 471 48 278 332 448 598
357z"/>
<path d="M4055 6222 c-72 -23 -158 -111 -179 -182 -37 -123 -13 -225 73 -310
117 -115 287 -123 406 -18 126 111 140 301 32 424 -82 93 -209 127 -332 86z
m265 -190 c25 -32 25 -67 0 -92 -51 -51 -122 -26 -128 44 -7 79 79 111 128 48z"/>
<path d="M5963 6210 c-230 -116 -228 -433 2 -542 151 -71 322 -8 396 147 56
116 33 252 -57 339 -61 59 -108 79 -199 84 -74 3 -85 1 -142 -28z m256 -155
c72 -37 46 -139 -34 -139 -82 0 -106 107 -31 140 39 17 32 17 65 -1z"/>
<path d="M5057 4954 c-14 -136 -126 -246 -331 -325 -176 -68 -350 -86 -481
-50 l-70 19 46 -41 c44 -39 49 -49 83 -166 77 -261 174 -479 288 -651 146
-220 284 -300 518 -300 263 0 392 70 548 297 123 180 215 382 303 666 39 125
46 140 76 158 47 30 41 39 -14 22 -69 -22 -220 -19 -325 6 -97 23 -236 76
-306 117 -109 64 -183 162 -198 260 l-6 41 -63 1 -62 0 -6 -54z m-386 -580
c-14 -152 -30 -182 -69 -126 -29 41 -55 129 -56 190 l-1 53 65 22 65 22 3 -24
c2 -13 -1 -75 -7 -137z m994 126 l50 -17 -1 -54 c-1 -62 -34 -146 -70 -180
-22 -21 -26 -22 -40 -7 -13 13 -18 47 -23 152 -7 154 -17 141 84 106z m-1058
-442 c-3 -8 -6 -5 -6 6 -1 11 2 17 5 13 3 -3 4 -12 1 -19z m231 -268 c12 -24
22 -58 22 -75 0 -17 5 -36 11 -42 28 -28 -33 1 -71 35 -38 32 -42 39 -37 70 7
38 25 64 41 59 6 -1 21 -23 34 -47z m651 5 l15 -38 -47 -41 c-25 -23 -61 -47
-79 -53 -31 -11 -32 -11 -10 4 12 9 22 26 22 40 0 49 50 138 74 130 6 -2 17
-21 25 -42z"/>
</g>
</svg>
